<?xml version="1.0" encoding="UTF-8" standalone="no"?>
<!DOCTYPE svg PUBLIC "-//W3C//DTD SVG 1.1//EN"
 "http://www.w3.org/Graphics/SVG/1.1/DTD/svg11.dtd">
<!-- Generated by graphviz version 2.26.3 (20100126.1600)
 -->
<!-- Title: wmachine Pages: 1 -->
<svg width="308pt" height="720pt"
 viewBox="0.00 0.00 308.39 720.00" xmlns="http://www.w3.org/2000/svg" xmlns:xlink="http://www.w3.org/1999/xlink">
<g id="graph1" class="graph" transform="scale(0.41958 0.41958) rotate(0) translate(4 1712)">
<title>wmachine</title>
<polygon fill="white" stroke="white" points="-4,5 -4,-1712 732,-1712 732,5 -4,5"/>
<!-- Idle -->
<g id="node1" class="node"><title>Idle</title>
<polygon fill="none" stroke="black" stroke-width="2" points="727,-1708 179,-1708 179,-1540 727,-1540 727,-1708"/>
<text text-anchor="start" x="187" y="-1691.4" font-family="Times Roman,serif" font-size="14.00">Idle {} {</text>
<text text-anchor="start" x="187" y="-1673.4" font-family="Times Roman,serif" font-size="14.00"> &#160;&#160;&#160;# Stop motor</text>
<text text-anchor="start" x="187" y="-1655.4" font-family="Times Roman,serif" font-size="14.00"> &#160;&#160;&#160;puts &quot;$self: Stopping motor&quot;</text>
<text text-anchor="start" x="187" y="-1621.4" font-family="Times Roman,serif" font-size="14.00"> &#160;&#160;&#160;# For testing purpose, we want to be able to run the Tcl event loop and</text>
<text text-anchor="start" x="187" y="-1603.4" font-family="Times Roman,serif" font-size="14.00"> &#160;&#160;&#160;# when we are done with the cycle we will use &quot;vwait&quot; to determine that</text>
<text text-anchor="start" x="187" y="-1585.4" font-family="Times Roman,serif" font-size="14.00"> &#160;&#160;&#160;# we have finished.</text>
<text text-anchor="start" x="187" y="-1567.4" font-family="Times Roman,serif" font-size="14.00"> &#160;&#160;&#160;set ::wmachine($self) Idle</text>
<text text-anchor="start" x="187" y="-1549.4" font-family="Times Roman,serif" font-size="14.00">}</text>
</g>
<!-- FillingForWashing -->
<g id="node2" class="node"><title>FillingForWashing</title>
<polygon fill="none" stroke="black" points="494,-1486 1.42109e-13,-1486 2.84217e-14,-1300 494,-1300 494,-1486"/>
<text text-anchor="start" x="8" y="-1469.4" font-family="Times Roman,serif" font-size="14.00">FillingForWashing {} {</text>
<text text-anchor="start" x="8" y="-1451.4" font-family="Times Roman,serif" font-size="14.00"> &#160;&#160;&#160;# Open water valve</text>
<text text-anchor="start" x="8" y="-1433.4" font-family="Times Roman,serif" font-size="14.00"> &#160;&#160;&#160;puts &quot;$self: Opening water valve&quot;</text>
<text text-anchor="start" x="8" y="-1399.4" font-family="Times Roman,serif" font-size="14.00"> &#160;&#160;&#160;# At this point we need the washing tub sensor to tell us that the</text>
<text text-anchor="start" x="8" y="-1381.4" font-family="Times Roman,serif" font-size="14.00"> &#160;&#160;&#160;# tub is full. For simplicity, we will simulate the sensor by</text>
<text text-anchor="start" x="8" y="-1363.4" font-family="Times Roman,serif" font-size="14.00"> &#160;&#160;&#160;# means of the Tcl &quot;after&quot; command.</text>
<text text-anchor="start" x="8" y="-1345.4" font-family="Times Roman,serif" font-size="14.00"> &#160;&#160;&#160;# SIMULATING THE TUB SENSOR</text>
<text text-anchor="start" x="8" y="-1327.4" font-family="Times Roman,serif" font-size="14.00"> &#160;&#160;&#160;after 5000 [list moore generate {} &#45; Full &#45;&gt; $self]</text>
<text text-anchor="start" x="8" y="-1309.4" font-family="Times Roman,serif" font-size="14.00">}</text>
</g>
<!-- Idle&#45;&gt;FillingForWashing -->
<g id="edge2" class="edge"><title>Idle&#45;&gt;FillingForWashing</title>
<path fill="none" stroke="black" d="M378.047,-1539.95C364.7,-1524.98 350.674,-1509.26 336.96,-1493.88"/>
<polygon fill="black" stroke="black" points="339.526,-1491.5 330.258,-1486.36 334.302,-1496.16 339.526,-1491.5"/>
<text text-anchor="middle" x="371" y="-1509.4" font-family="Times Roman,serif" font-size="14.00">Run</text>
</g>
<!-- Agitating -->
<g id="node3" class="node"><title>Agitating</title>
<polygon fill="none" stroke="black" points="483,-1246 79,-1246 79,-1094 483,-1094 483,-1246"/>
<text text-anchor="start" x="87" y="-1229.4" font-family="Times Roman,serif" font-size="14.00">Agitating {} {</text>
<text text-anchor="start" x="87" y="-1211.4" font-family="Times Roman,serif" font-size="14.00"> &#160;&#160;&#160;# Close water value</text>
<text text-anchor="start" x="87" y="-1193.4" font-family="Times Roman,serif" font-size="14.00"> &#160;&#160;&#160;puts &quot;$self: Closing water valve&quot;</text>
<text text-anchor="start" x="87" y="-1175.4" font-family="Times Roman,serif" font-size="14.00"> &#160;&#160;&#160;# Set motor to agitate</text>
<text text-anchor="start" x="87" y="-1157.4" font-family="Times Roman,serif" font-size="14.00"> &#160;&#160;&#160;puts &quot;$self: Setting motor to agitate&quot;</text>
<text text-anchor="start" x="87" y="-1139.4" font-family="Times Roman,serif" font-size="14.00"> &#160;&#160;&#160;# Generate &quot;Done&quot; to self delayed by the wash time.</text>
<text text-anchor="start" x="87" y="-1121.4" font-family="Times Roman,serif" font-size="14.00"> &#160;&#160;&#160;moore delay [$self cget wash] $self &#45; Done &#45;&gt; $self</text>
<text text-anchor="start" x="87" y="-1103.4" font-family="Times Roman,serif" font-size="14.00">}</text>
</g>
<!-- FillingForWashing&#45;&gt;Agitating -->
<g id="edge4" class="edge"><title>FillingForWashing&#45;&gt;Agitating</title>
<path fill="none" stroke="black" d="M261.222,-1299.72C263.404,-1285.41 265.648,-1270.69 267.807,-1256.53"/>
<polygon fill="black" stroke="black" points="271.313,-1256.75 269.361,-1246.34 264.393,-1255.7 271.313,-1256.75"/>
<text text-anchor="middle" x="279.5" y="-1269.4" font-family="Times Roman,serif" font-size="14.00">Full</text>
</g>
<!-- EmptyingWashWater -->
<g id="node4" class="node"><title>EmptyingWashWater</title>
<polygon fill="none" stroke="black" points="488,-1040 90,-1040 90,-872 488,-872 488,-1040"/>
<text text-anchor="start" x="98" y="-1023.4" font-family="Times Roman,serif" font-size="14.00">EmptyingWashWater {} {</text>
<text text-anchor="start" x="98" y="-1005.4" font-family="Times Roman,serif" font-size="14.00"> &#160;&#160;&#160;# Stop motor</text>
<text text-anchor="start" x="98" y="-987.4" font-family="Times Roman,serif" font-size="14.00"> &#160;&#160;&#160;puts &quot;$self: Stopping motor&quot;</text>
<text text-anchor="start" x="98" y="-969.4" font-family="Times Roman,serif" font-size="14.00"> &#160;&#160;&#160;# Start pump</text>
<text text-anchor="start" x="98" y="-951.4" font-family="Times Roman,serif" font-size="14.00"> &#160;&#160;&#160;puts &quot;$self: Starting pump&quot;</text>
<text text-anchor="start" x="98" y="-917.4" font-family="Times Roman,serif" font-size="14.00"> &#160;&#160;&#160;# SIMULATING THE TUB SENSOR</text>
<text text-anchor="start" x="98" y="-899.4" font-family="Times Roman,serif" font-size="14.00"> &#160;&#160;&#160;after 5000 [list moore generate {} &#45; Empty &#45;&gt; $self]</text>
<text text-anchor="start" x="98" y="-881.4" font-family="Times Roman,serif" font-size="14.00">}</text>
</g>
<!-- Agitating&#45;&gt;EmptyingWashWater -->
<g id="edge6" class="edge"><title>Agitating&#45;&gt;EmptyingWashWater</title>
<path fill="none" stroke="black" d="M283.843,-1093.95C284.372,-1079.8 284.931,-1064.85 285.477,-1050.23"/>
<polygon fill="black" stroke="black" points="288.977,-1050.3 285.853,-1040.17 281.982,-1050.04 288.977,-1050.3"/>
<text text-anchor="middle" x="303.5" y="-1063.4" font-family="Times Roman,serif" font-size="14.00">Done</text>
</g>
<!-- FillingForRinse -->
<g id="node5" class="node"><title>FillingForRinse</title>
<polygon fill="none" stroke="black" points="482,-818 106,-818 106,-634 482,-634 482,-818"/>
<text text-anchor="start" x="113.5" y="-801.4" font-family="Times Roman,serif" font-size="14.00">FillingForRinse {} {</text>
<text text-anchor="start" x="113.5" y="-783.4" font-family="Times Roman,serif" font-size="14.00"> &#160;&#160;&#160;# Stop pump</text>
<text text-anchor="start" x="113.5" y="-765.4" font-family="Times Roman,serif" font-size="14.00"> &#160;&#160;&#160;puts &quot;$self: Stopping pump&quot;</text>
<text text-anchor="start" x="113.5" y="-747.4" font-family="Times Roman,serif" font-size="14.00"> &#160;&#160;&#160;# Open water valve</text>
<text text-anchor="start" x="113.5" y="-729.4" font-family="Times Roman,serif" font-size="14.00"> &#160;&#160;&#160;puts &quot;$self: Opening water valve&quot;</text>
<text text-anchor="start" x="113.5" y="-679.4" font-family="Times Roman,serif" font-size="14.00"> &#160;&#160;&#160;# SIMULATING THE TUB SENSOR</text>
<text text-anchor="start" x="113.5" y="-661.4" font-family="Times Roman,serif" font-size="14.00"> &#160;&#160;&#160;after 5000 [list moore generate {} &#45; Full &#45;&gt; $self]</text>
<text text-anchor="start" x="113.5" y="-643.4" font-family="Times Roman,serif" font-size="14.00">}</text>
</g>
<!-- EmptyingWashWater&#45;&gt;FillingForRinse -->
<g id="edge8" class="edge"><title>EmptyingWashWater&#45;&gt;FillingForRinse</title>
<path fill="none" stroke="black" d="M290.826,-871.988C291.135,-857.808 291.458,-842.949 291.775,-828.364"/>
<polygon fill="black" stroke="black" points="295.275,-828.397 291.993,-818.323 288.276,-828.244 295.275,-828.397"/>
<text text-anchor="middle" x="314.5" y="-841.4" font-family="Times Roman,serif" font-size="14.00">Empty</text>
</g>
<!-- Rinsing -->
<g id="node6" class="node"><title>Rinsing</title>
<polygon fill="none" stroke="black" points="487,-580 103,-580 103,-428 487,-428 487,-580"/>
<text text-anchor="start" x="110.5" y="-563.4" font-family="Times Roman,serif" font-size="14.00">Rinsing {} {</text>
<text text-anchor="start" x="110.5" y="-545.4" font-family="Times Roman,serif" font-size="14.00"> &#160;&#160;&#160;# Close water valve</text>
<text text-anchor="start" x="110.5" y="-527.4" font-family="Times Roman,serif" font-size="14.00"> &#160;&#160;&#160;puts &quot;$self: Closing water valve&quot;</text>
<text text-anchor="start" x="110.5" y="-509.4" font-family="Times Roman,serif" font-size="14.00"> &#160;&#160;&#160;# Set motor to agitate</text>
<text text-anchor="start" x="110.5" y="-491.4" font-family="Times Roman,serif" font-size="14.00"> &#160;&#160;&#160;puts &quot;$self: Setting motor to agitate&quot;</text>
<text text-anchor="start" x="110.5" y="-473.4" font-family="Times Roman,serif" font-size="14.00"> &#160;&#160;&#160;# Generate Done to self delayed by the rinse time</text>
<text text-anchor="start" x="110.5" y="-455.4" font-family="Times Roman,serif" font-size="14.00"> &#160;&#160;&#160;moore delay [$self cget rinse] $self &#45; Done &#45;&gt; $self</text>
<text text-anchor="start" x="110.5" y="-437.4" font-family="Times Roman,serif" font-size="14.00">}</text>
</g>
<!-- FillingForRinse&#45;&gt;Rinsing -->
<g id="edge10" class="edge"><title>FillingForRinse&#45;&gt;Rinsing</title>
<path fill="none" stroke="black" d="M294.415,-633.781C294.48,-619.401 294.547,-604.589 294.611,-590.347"/>
<polygon fill="black" stroke="black" points="298.112,-590.107 294.657,-580.092 291.112,-590.076 298.112,-590.107"/>
<text text-anchor="middle" x="307.5" y="-603.4" font-family="Times Roman,serif" font-size="14.00">Full</text>
</g>
<!-- EmptyingRinseWater -->
<g id="node7" class="node"><title>EmptyingRinseWater</title>
<polygon fill="none" stroke="black" points="494,-374 96,-374 96,-206 494,-206 494,-374"/>
<text text-anchor="start" x="104" y="-357.4" font-family="Times Roman,serif" font-size="14.00">EmptyingRinseWater {} {</text>
<text text-anchor="start" x="104" y="-339.4" font-family="Times Roman,serif" font-size="14.00"> &#160;&#160;&#160;# Stop motor</text>
<text text-anchor="start" x="104" y="-321.4" font-family="Times Roman,serif" font-size="14.00"> &#160;&#160;&#160;puts &quot;$self: Stopping motor&quot;</text>
<text text-anchor="start" x="104" y="-303.4" font-family="Times Roman,serif" font-size="14.00"> &#160;&#160;&#160;# Start pump</text>
<text text-anchor="start" x="104" y="-285.4" font-family="Times Roman,serif" font-size="14.00"> &#160;&#160;&#160;puts &quot;$self: Starting pump&quot;</text>
<text text-anchor="start" x="104" y="-251.4" font-family="Times Roman,serif" font-size="14.00"> &#160;&#160;&#160;# SIMULATING THE TUB SENSOR</text>
<text text-anchor="start" x="104" y="-233.4" font-family="Times Roman,serif" font-size="14.00"> &#160;&#160;&#160;after 5000 [list moore generate {} &#45; Empty &#45;&gt; $self]</text>
<text text-anchor="start" x="104" y="-215.4" font-family="Times Roman,serif" font-size="14.00">}</text>
</g>
<!-- Rinsing&#45;&gt;EmptyingRinseWater -->
<g id="edge12" class="edge"><title>Rinsing&#45;&gt;EmptyingRinseWater</title>
<path fill="none" stroke="black" d="M295,-427.949C295,-413.796 295,-398.851 295,-384.23"/>
<polygon fill="black" stroke="black" points="298.5,-384.173 295,-374.173 291.5,-384.173 298.5,-384.173"/>
<text text-anchor="middle" x="313.5" y="-397.4" font-family="Times Roman,serif" font-size="14.00">Done</text>
</g>
<!-- Spinning -->
<g id="node8" class="node"><title>Spinning</title>
<polygon fill="none" stroke="black" points="639,-152 261,-152 261,-4.26326e-14 639,-0 639,-152"/>
<text text-anchor="start" x="268.5" y="-135.4" font-family="Times Roman,serif" font-size="14.00">Spinning {} {</text>
<text text-anchor="start" x="268.5" y="-117.4" font-family="Times Roman,serif" font-size="14.00"> &#160;&#160;&#160;# Stop pump</text>
<text text-anchor="start" x="268.5" y="-99.4" font-family="Times Roman,serif" font-size="14.00"> &#160;&#160;&#160;puts &quot;$self: Stopping pump&quot;</text>
<text text-anchor="start" x="268.5" y="-81.4" font-family="Times Roman,serif" font-size="14.00"> &#160;&#160;&#160;# Set motor to spin</text>
<text text-anchor="start" x="268.5" y="-63.4" font-family="Times Roman,serif" font-size="14.00"> &#160;&#160;&#160;puts &quot;$self: Setting motor to spin&quot;</text>
<text text-anchor="start" x="268.5" y="-45.4" font-family="Times Roman,serif" font-size="14.00"> &#160;&#160;&#160;# Generate Done to self delayed by the spin time</text>
<text text-anchor="start" x="268.5" y="-27.4" font-family="Times Roman,serif" font-size="14.00"> &#160;&#160;&#160;moore delay [$self cget spin] $self &#45; Done &#45;&gt; $self</text>
<text text-anchor="start" x="268.5" y="-9.4" font-family="Times Roman,serif" font-size="14.00">}</text>
</g>
<!-- EmptyingRinseWater&#45;&gt;Spinning -->
<g id="edge14" class="edge"><title>EmptyingRinseWater&#45;&gt;Spinning</title>
<path fill="none" stroke="black" d="M356.038,-205.729C366.831,-190.827 378.071,-175.308 388.867,-160.403"/>
<polygon fill="black" stroke="black" points="391.782,-162.345 394.814,-152.193 386.113,-158.239 391.782,-162.345"/>
<text text-anchor="middle" x="404.5" y="-175.4" font-family="Times Roman,serif" font-size="14.00">Empty</text>
</g>
<!-- Spinning&#45;&gt;Idle -->
<g id="edge16" class="edge"><title>Spinning&#45;&gt;Idle</title>
<path fill="none" stroke="black" d="M488.95,-152.198C505.915,-192.167 522,-242.569 522,-290 522,-1393 522,-1393 522,-1393 522,-1439.5 509.005,-1489.14 494.294,-1530.45"/>
<polygon fill="black" stroke="black" points="490.97,-1529.35 490.831,-1539.94 497.546,-1531.75 490.97,-1529.35"/>
<text text-anchor="middle" x="540.5" y="-841.4" font-family="Times Roman,serif" font-size="14.00">Done</text>
</g>
</g>
</svg>
